<svg width="128" height="36" viewBox="0 0 128 36" fill="none" xmlns="http://www.w3.org/2000/svg">
<path d="M7.624 22.14L8.056 17.496H20.548L20.944 22.14H7.624ZM14.212 11.052L10.684 19.188L10.972 20.52L7.84 27H0.964L14.212 0.215999L27.496 27H20.584L17.56 20.772L17.776 19.224L14.212 11.052ZM28.9847 28.188H34.2407C34.3127 28.86 34.5047 29.424 34.8167 29.88C35.1527 30.336 35.5967 30.672 36.1487 30.888C36.7007 31.128 37.3247 31.248 38.0207 31.248C38.7887 31.248 39.4847 31.068 40.1087 30.708C40.7327 30.372 41.2247 29.856 41.5847 29.16C41.9687 28.488 42.1607 27.648 42.1607 26.64V10.44H47.3807V26.64C47.3807 28.752 46.9607 30.468 46.1207 31.788C45.3047 33.108 44.2127 34.068 42.8447 34.668C41.4767 35.292 39.9407 35.604 38.2367 35.604C36.1967 35.604 34.5047 35.292 33.1607 34.668C31.8407 34.044 30.8447 33.168 30.1727 32.04C29.5007 30.936 29.1047 29.652 28.9847 28.188ZM28.6247 18.504C28.6247 16.632 28.9967 15.072 29.7407 13.824C30.5087 12.576 31.4927 11.64 32.6927 11.016C33.8927 10.392 35.1647 10.08 36.5087 10.08C37.9007 10.08 39.1247 10.416 40.1807 11.088C41.2607 11.736 42.1127 12.684 42.7367 13.932C43.3607 15.18 43.6727 16.704 43.6727 18.504C43.6727 20.28 43.3607 21.804 42.7367 23.076C42.1127 24.324 41.2607 25.284 40.1807 25.956C39.1247 26.604 37.9007 26.928 36.5087 26.928C35.1647 26.928 33.8927 26.616 32.6927 25.992C31.4927 25.344 30.5087 24.396 29.7407 23.148C28.9967 21.9 28.6247 20.352 28.6247 18.504ZM34.3487 18.504C34.3487 19.344 34.5287 20.076 34.8887 20.7C35.2487 21.3 35.7287 21.756 36.3287 22.068C36.9287 22.38 37.5887 22.536 38.3087 22.536C38.9327 22.536 39.5327 22.392 40.1087 22.104C40.7087 21.792 41.2007 21.336 41.5847 20.736C41.9687 20.136 42.1607 19.392 42.1607 18.504C42.1607 17.832 42.0407 17.244 41.8007 16.74C41.5847 16.236 41.2847 15.816 40.9007 15.48C40.5407 15.144 40.1327 14.892 39.6767 14.724C39.2207 14.556 38.7647 14.472 38.3087 14.472C37.5887 14.472 36.9287 14.628 36.3287 14.94C35.7287 15.252 35.2487 15.708 34.8887 16.308C34.5287 16.908 34.3487 17.64 34.3487 18.504ZM59.9933 27.36C58.0733 27.36 56.4053 27.012 54.9893 26.316C53.5973 25.596 52.5173 24.588 51.7493 23.292C50.9813 21.996 50.5973 20.472 50.5973 18.72C50.5973 16.944 50.9693 15.408 51.7133 14.112C52.4573 12.816 53.5253 11.82 54.9173 11.124C56.3333 10.428 58.0013 10.08 59.9213 10.08C61.8413 10.08 63.4613 10.416 64.7813 11.088C66.1013 11.736 67.1093 12.684 67.8053 13.932C68.5013 15.18 68.8493 16.692 68.8493 18.468C68.8493 18.732 68.8493 18.996 68.8493 19.26C68.8493 19.5 68.8253 19.704 68.7773 19.872H53.6573V16.848H63.8813L62.5853 18.504C62.7053 18.336 62.8013 18.132 62.8733 17.892C62.9693 17.628 63.0173 17.412 63.0173 17.244C63.0173 16.524 62.8853 15.9 62.6213 15.372C62.3573 14.844 61.9853 14.436 61.5053 14.148C61.0253 13.86 60.4613 13.716 59.8133 13.716C58.9973 13.716 58.3133 13.896 57.7613 14.256C57.2093 14.616 56.7893 15.168 56.5013 15.912C56.2373 16.632 56.0933 17.544 56.0693 18.648C56.0693 19.656 56.2133 20.52 56.5013 21.24C56.7893 21.96 57.2213 22.512 57.7973 22.896C58.3733 23.256 59.0813 23.436 59.9213 23.436C60.8813 23.436 61.6973 23.256 62.3693 22.896C63.0653 22.536 63.6173 21.996 64.0253 21.276L68.8853 22.464C68.0213 24.096 66.8453 25.32 65.3573 26.136C63.8933 26.952 62.1053 27.36 59.9933 27.36ZM82.97 16.92C82.97 15.936 82.778 15.18 82.394 14.652C82.034 14.124 81.422 13.86 80.558 13.86C79.982 13.86 79.478 13.98 79.046 14.22C78.614 14.46 78.278 14.808 78.038 15.264C77.798 15.72 77.678 16.272 77.678 16.92V27H72.206V10.44H77.678V12.924C78.158 12.012 78.806 11.304 79.622 10.8C80.462 10.296 81.494 10.044 82.718 10.044C84.782 10.044 86.282 10.596 87.218 11.7C88.154 12.804 88.622 14.352 88.622 16.344V27H82.97V16.92ZM97.4851 18.72C97.4851 19.608 97.6771 20.376 98.0611 21.024C98.4451 21.648 98.9731 22.14 99.6451 22.5C100.341 22.86 101.085 23.04 101.877 23.04C102.549 23.04 103.185 22.944 103.785 22.752C104.409 22.536 104.973 22.248 105.477 21.888C106.005 21.528 106.437 21.084 106.773 20.556V25.848C106.197 26.304 105.477 26.676 104.613 26.964C103.749 27.228 102.693 27.36 101.445 27.36C99.6211 27.36 97.9771 27 96.5131 26.28C95.0731 25.56 93.9331 24.552 93.0931 23.256C92.2771 21.96 91.8691 20.448 91.8691 18.72C91.8691 16.968 92.2771 15.456 93.0931 14.184C93.9331 12.888 95.0731 11.88 96.5131 11.16C97.9771 10.44 99.6211 10.08 101.445 10.08C102.693 10.08 103.749 10.224 104.613 10.512C105.477 10.776 106.197 11.112 106.773 11.52V16.848C106.437 16.32 105.993 15.876 105.441 15.516C104.913 15.156 104.337 14.88 103.713 14.688C103.089 14.496 102.477 14.4 101.877 14.4C101.085 14.4 100.341 14.592 99.6451 14.976C98.9731 15.36 98.4451 15.876 98.0611 16.524C97.6771 17.172 97.4851 17.904 97.4851 18.72ZM127.658 10.44L116.858 34.92H111.386L115.418 25.668L108.254 10.44H114.23L119.594 23.724L116.786 23.688L122.078 10.44H127.658Z" fill="white"/>
</svg>
